<svg width="70" height="70" viewBox="0 0 70 70" fill="none" xmlns="http://www.w3.org/2000/svg">
<path d="M56.0258 26.9597H54.7512V20.8182C54.7501 20.7791 54.7464 20.7402 54.7399 20.7017C54.7417 20.455 54.6535 20.2161 54.4918 20.0296L44.2608 8.35674L44.2533 8.34923C44.192 8.28313 44.1225 8.22508 44.0465 8.17649L43.9788 8.13518C43.9138 8.09909 43.8451 8.07014 43.7739 8.04882L43.7175 8.03004C43.6394 8.01059 43.5592 8.00051 43.4787 8H18.33C17.1813 8 16.2488 8.93315 16.2488 10.0785V26.9578H14.9742C13.331 26.9578 12 28.2871 12 29.9281V45.3768C12 47.0159 13.3329 48.3471 14.9742 48.3471H16.2488V58.9215C16.2488 60.0669 17.1813 61 18.33 61H52.67C53.8168 61 54.7512 60.0669 54.7512 58.9215V48.3471H56.0258C57.6671 48.3471 59 47.0177 59 45.3768V29.9281C59 28.289 57.669 26.9597 56.0258 26.9597ZM18.33 10.0785H42.4372V20.713C42.4372 21.2876 42.9034 21.7513 43.4787 21.7513H52.6719V26.9578H18.33V10.0785ZM33.9001 38.5574C31.3734 37.6562 29.7058 36.2593 29.7058 34.0531C29.7058 31.464 31.8942 29.5057 35.4568 29.5057C37.1939 29.5057 38.4328 29.8436 39.3352 30.2698L38.5682 33.0167C37.5851 32.5385 36.5051 32.2925 35.4116 32.2976C33.9227 32.2976 33.2008 32.9942 33.2008 33.7602C33.2008 34.7291 34.0336 35.1553 36.0189 35.8988C38.7035 36.8901 39.9424 38.2852 39.9424 40.4256C39.9424 42.9716 38.0042 45.1327 33.8324 45.1327C32.0953 45.1327 30.3826 44.6595 29.5254 44.1864L30.2247 41.3719C31.4053 41.9739 32.7082 42.2976 34.0336 42.3182C35.6128 42.3182 36.4475 41.6629 36.4475 40.6734C36.4475 39.7272 35.7275 39.1883 33.9001 38.5574ZM15.9912 37.521C15.9912 32.3633 19.6892 29.5038 24.2877 29.5038C26.0699 29.5038 27.4216 29.8624 28.0308 30.1572L27.3088 32.8815C26.3956 32.4986 25.4134 32.3069 24.423 32.3183C21.7177 32.3183 19.599 33.9611 19.599 37.3389C19.599 40.3561 21.4019 42.2713 24.4456 42.2713C25.5059 42.2713 26.6339 42.0704 27.3314 41.7756L27.8296 44.4774C27.2205 44.7684 25.7766 45.1308 23.9512 45.1308C18.6966 45.1327 15.9912 41.845 15.9912 37.521ZM52.67 58.362H18.33V48.3489H52.67V58.362ZM49.8914 44.9074H45.8776L41.0084 29.7291H44.774L46.6221 36.1485C47.1391 37.9716 47.6128 39.684 47.9738 41.5747H48.0415C48.4259 39.7704 48.8844 37.9827 49.4158 36.2161L51.3559 29.731H55.0069L49.8914 44.9074Z" fill="#ED4C5C"/>
</svg>
