<svg width="14" height="15" viewBox="0 0 14 15" fill="none" xmlns="http://www.w3.org/2000/svg">
<path d="M9.33334 5.25281C10.2616 5.25281 11.1518 5.62156 11.8082 6.27793C12.4646 6.93431 12.8333 7.82455 12.8333 8.75281V12.8361H10.5V8.75281C10.5 8.44339 10.3771 8.14664 10.1583 7.92785C9.9395 7.70906 9.64276 7.58614 9.33334 7.58614C9.02392 7.58614 8.72717 7.70906 8.50838 7.92785C8.28959 8.14664 8.16667 8.44339 8.16667 8.75281V12.8361H5.83334V8.75281C5.83334 7.82455 6.20208 6.93431 6.85846 6.27793C7.51484 5.62156 8.40508 5.25281 9.33334 5.25281Z" fill="#101010"/>
<path d="M1.16667 5.83618H3.5V12.8362H1.16667V5.83618Z" fill="#101010"/>
<path d="M2.33333 4.08614C2.97767 4.08614 3.5 3.56381 3.5 2.91947C3.5 2.27514 2.97767 1.75281 2.33333 1.75281C1.689 1.75281 1.16667 2.27514 1.16667 2.91947C1.16667 3.56381 1.689 4.08614 2.33333 4.08614Z" fill="#101010"/>
</svg>
