<svg width="14" height="15" viewBox="0 0 14 15" fill="none" xmlns="http://www.w3.org/2000/svg">
<path d="M13.4167 2.33619C12.8581 2.73022 12.2396 3.03159 11.585 3.22869C11.2337 2.82474 10.7668 2.53843 10.2474 2.40848C9.7281 2.27853 9.18137 2.31122 8.68122 2.50212C8.18106 2.69302 7.75159 3.03292 7.45091 3.47586C7.15022 3.91879 6.99283 4.44338 7 4.97869V5.56202C5.97487 5.5886 4.95908 5.36125 4.04309 4.9002C3.1271 4.43915 2.33935 3.75873 1.75 2.91952C1.75 2.91952 -0.583331 8.16952 4.66667 10.5029C3.46531 11.3183 2.03418 11.7272 0.583336 11.6695C5.83333 14.5862 12.25 11.6695 12.25 4.96119C12.2495 4.7987 12.2338 4.63662 12.2033 4.47702C12.7987 3.88989 13.2188 3.1486 13.4167 2.33619Z" fill="#101010"/>
</svg>
